<svg width="903" height="545" viewBox="0 0 903 545" fill="none" xmlns="http://www.w3.org/2000/svg">
<path d="M209.333 10.8V21.4667H224H238.667V115.467V209.467H204.133H169.6L124.667 156.8L79.6 104.133H56.1333H32.8L24 112.8L15.3333 121.333L15.7333 168.8L16 216.133H23.3333H30.6667V223.467V230.8L47.0667 230.933L63.3333 231.067L33.3333 234.933C16.8 237.067 2.53333 239.067 1.73333 239.467C0.4 239.867 0 247.6 0 272C0 289.6 0.4 304.267 1.06667 304.533C1.6 304.933 15.8667 306.933 32.6667 308.933L63.3333 312.8L47.0667 313.2L30.6667 313.6V320.8V328.133H23.3333H16L15.7333 375.467L15.3333 422.933L24 431.467L32.8 440.133H56.1333H79.4667L124.533 387.467L169.6 334.8H204.133H238.667V428.8V522.8H224H209.333V533.467V544.133H290.533C368.533 544.133 380.667 543.6 389.6 540C393.6 538.4 395.333 534.933 394 530.933C392.4 525.867 383.6 523.733 359.6 522.933L337.2 522.133L402 444.133L466.933 366.133L481.2 365.733C494.667 365.333 497.6 364.667 548.667 350.133L602 334.933L684 327.467C764.533 320.267 766.667 320 791.333 314.133C850.667 300.133 886.8 288.4 897.467 279.867C898.667 278.933 900.267 276.667 901.2 274.933C902.667 272.267 902.533 271.333 900.4 268.4C893.333 259.067 863.333 248 804.667 233.467L768.133 224.267L685.067 216.8L602 209.2L550.667 194.4C500.933 180.133 498.8 179.6 483.067 178.933L466.933 178.133L402.133 100.133L337.2 22.1333L358.933 21.3333C380.933 20.4 388.933 19.0667 392.667 15.3333C395.2 12.6667 395.2 8.93333 392.667 6.26667C387.467 1.2 383.2 0.933333 295.067 0.4L209.333 1.04308e-07V10.8Z" fill="black"/>
</svg>
